# xmcd
#
# Track frame offsets:
#	150
#	18907
#	38715
#	56532
#	75812
#	97005
#	118462
#	140842
#	158007
#	180095
#	203302
#	221145
#
# Disc length: 3204 seconds
#
# Revision: 1
# Processed by: cddbd v1.5.1PL0 Copyright (c) Steve Scherf et al.
# Submitted via: CDex 1.50Beta5
#
DISCID=950c820c
DTITLE=R.A.M. - 電脳冒険記ウェブダイバー Song Collection〜うたって ダイブ!!〜
DYEAR=2001
DGENRE=
TTITLE0=R.A.M./DIVER#2100
TTITLE1=R.A.M./CYBER WARRIORS
TTITLE2=結城ケント(小林由美子)/輝け 勇気。〜ケントのテーマ〜
TTITLE3=グラディオン(杉田智和)/友よ、夢の彼方に:グラディオンのテーマ
TTITLE4=影山ヒロノブ/Fighters
TTITLE5=R.A.M./SYNC,〜君がいるから〜
TTITLE6=R.A.M./SO DIVE!
TTITLE7=KATSUMI/TOGETHER
TTITLE8=KATSUMI/See you again
TTITLE9=R.A.M./DIVER#2100〔Rev.5.11〕
TTITLE10=結城ケント(小林由美子)/輝け 勇気。〜ケントのテーマ〜(オリジナル・カラオケ)
TTITLE11=グラディオン(杉田智和)/友よ、夢の彼方に:グラディオンのテーマ(オリジナル・カラオケ)
EXTD=
EXTT0=
EXTT1=
EXTT2=
EXTT3=
EXTT4=
EXTT5=
EXTT6=
EXTT7=
EXTT8=
EXTT9=
EXTT10=
EXTT11=
PLAYORDER=
